<?xml version="1.0" standalone="no"?>
<!DOCTYPE svg PUBLIC "-//W3C//DTD SVG 1.1//EN" "http://www.w3.org/Graphics/SVG/1.1/DTD/svg11.dtd" >
<!--
2013-9-30: Created.
-->
<svg>
<metadata>
Created by iconfont
</metadata>
<defs>

<font id="bcicon" horiz-adv-x="1024" >
  <font-face
    font-family="bcicon"
    font-weight="500"
    font-stretch="normal"
    units-per-em="1024"
    ascent="896"
    descent="-128"
  />
    <missing-glyph />
    
    <glyph glyph-name="close" unicode="&#58885;" d="M906.24 706.56l-71.68 71.68L512 455.68 189.44 778.24 117.76 706.56 440.32 384l-322.56-322.56 71.68-71.68 322.56 322.56 322.56-322.56 71.68 71.68-322.56 322.56z"  horiz-adv-x="1024" />

    
    <glyph glyph-name="search" unicode="&#58891;" d="M1024-51.2l-286.72 286.72c51.2 71.68 81.92 158.72 81.92 250.88 0 225.28-184.32 409.6-409.6 409.6S0 711.68 0 486.4s184.32-409.6 409.6-409.6c92.16 0 179.2 30.72 250.88 87.04l286.72-286.72 76.8 71.68zM409.6 179.2c-168.96 0-307.2 138.24-307.2 307.2s138.24 307.2 307.2 307.2 307.2-138.24 307.2-307.2-138.24-307.2-307.2-307.2z"  horiz-adv-x="1024" />

    
    <glyph glyph-name="edit" unicode="&#58895;" d="M768 0H128V640h384V768H0v-896h896V384h-128zM640 896v-128h166.4L403.2 364.8l89.6-89.6L896 678.4V512h128V896z"  horiz-adv-x="1024" />

    
    <glyph glyph-name="delete" unicode="&#58909;" d="M384 896h256v-128H384zM1024 640H0v-128h128v-640h768V512h128V640z m-256-640H576V384H448v-384H256V512h512v-512z"  horiz-adv-x="1024" />

    
    <glyph glyph-name="checkbox" unicode="&#58911;" d="M768 832c108.8 0 192-83.2 192-192v-512c0-108.8-83.2-192-192-192H256c-108.8 0-192 83.2-192 192V640c0 108.8 83.2 192 192 192h512m0 64H256C115.2 896 0 780.8 0 640v-512c0-140.8 115.2-256 256-256h512c140.8 0 256 115.2 256 256V640c0 140.8-115.2 256-256 256z"  horiz-adv-x="1024" />

    
    <glyph glyph-name="radio" unicode="&#58912;" d="M512 832c249.6 0 448-198.4 448-448s-198.4-448-448-448-448 198.4-448 448 198.4 448 448 448m0 64C230.4 896 0 665.6 0 384s230.4-512 512-512 512 230.4 512 512-230.4 512-512 512z"  horiz-adv-x="1024" />

    
    <glyph glyph-name="checkbox-checked" unicode="&#58914;" d="M768 832c108.8 0 192-83.2 192-192v-512c0-108.8-83.2-192-192-192H256c-108.8 0-192 83.2-192 192V640c0 108.8 83.2 192 192 192h512m0 64H256C115.2 896 0 780.8 0 640v-512c0-140.8 115.2-256 256-256h512c140.8 0 256 115.2 256 256V640c0 140.8-115.2 256-256 256zM441.6 166.39999999999998L211.2 403.2l89.6 89.6 140.8-147.2 281.6 275.2 89.6-89.6z"  horiz-adv-x="1024" />

    
    <glyph glyph-name="radio-checked" unicode="&#58915;" d="M512 832c249.6 0 448-198.4 448-448s-198.4-448-448-448-448 198.4-448 448 198.4 448 448 448m0 64C230.4 896 0 665.6 0 384s230.4-512 512-512 512 230.4 512 512-230.4 512-512 512zM512 384m-256 0a256 256 0 1 1 512 0 256 256 0 1 1-512 0Z"  horiz-adv-x="1024" />

    
    <glyph glyph-name="arrow-right" unicode="&#58916;" d="M377.73811838 652.52376322v-537.04752644l268.52376324 268.52376322z"  horiz-adv-x="1024" />

    
    <glyph glyph-name="arrow-down" unicode="&#58917;" d="M243.47623678 518.2618816199999h537.04752644l-268.52376322-268.52376324z"  horiz-adv-x="1024" />

    
    <glyph glyph-name="no-filling" unicode="&#58922;" d="M512 896C230.4 896 0 665.6 0 384s230.4-512 512-512 512 230.4 512 512S793.6 896 512 896z m240.64-680.96l-71.68-71.68-168.96 168.96-168.96-168.96-71.68 71.68L440.32 384 271.36 552.96l71.68 71.68L512 455.68l168.96 168.96 71.68-71.68-168.96-168.96 168.96-168.96z"  horiz-adv-x="1024" />

    
    <glyph glyph-name="yes-filling" unicode="&#58923;" d="M512 896C230.4 896 0 665.6 0 384s230.4-512 512-512 512 230.4 512 512S793.6 896 512 896zM455.68 158.72000000000003l-184.32 189.44 71.68 71.68 112.64-117.76 276.48 271.36 71.68-71.68-348.16-343.04z"  horiz-adv-x="1024" />

    
    <glyph glyph-name="info-filling" unicode="&#58924;" d="M512 896C230.4 896 0 665.6 0 384s230.4-512 512-512 512 230.4 512 512S793.6 896 512 896z m51.2-768H460.8v102.4h102.4v-102.4z m0 204.8H460.8V640h102.4v-307.2z"  horiz-adv-x="1024" />

    
    <glyph glyph-name="info" unicode="&#58925;" d="M448 704h128v-384H448zM448 192h128v-128H448z"  horiz-adv-x="1024" />

    
    <glyph glyph-name="yes" unicode="&#58926;" d="M441.6 123.73333333999994L211.2 360.53333334l89.6 89.6 140.8-147.2 345.6 339.2 89.6-89.6z"  horiz-adv-x="1024" />

    
    <glyph glyph-name="no" unicode="&#58927;" d="M812.8 595.2l-89.6 89.6L512 473.6 300.8 684.8 211.2 595.2 422.4 384l-211.2-211.2 89.6-89.6L512 294.4l211.2-211.2 89.6 89.6L601.6 384z"  horiz-adv-x="1024" />

    
    <glyph glyph-name="menu" unicode="&#58906;" d="M0 793.6h716.8v-102.4H0zM0 435.2h716.8v-102.4H0zM0 76.8h716.8v-102.4H0zM819.2 793.6h204.8v-102.4h-204.8zM819.2 435.2h204.8v-102.4h-204.8zM819.2 76.8h204.8v-102.4h-204.8z"  horiz-adv-x="1024" />

    
    <glyph glyph-name="user" unicode="&#58907;" d="M512 281.6c-168.96 0-307.2 138.24-307.2 307.2s138.24 307.2 307.2 307.2 307.2-138.24 307.2-307.2-138.24-307.2-307.2-307.2z m0 512C399.36 793.6 307.2 701.44 307.2 588.8s92.16-204.8 204.8-204.8 204.8 92.16 204.8 204.8-92.16 204.8-204.8 204.8zM1024-128h-102.4c0 97.28-168.96 204.8-409.6 204.8s-409.6-107.52-409.6-204.8H0c0 174.08 225.28 307.2 512 307.2s512-133.12 512-307.2z"  horiz-adv-x="1024" />

    
    <glyph glyph-name="forward" unicode="&#58918;" d="M512 896L1024 384 512-128l-71.68 71.68L880.64 384l-440.32 440.32z"  horiz-adv-x="1024" />

    
    <glyph glyph-name="back" unicode="&#58919;" d="M512-128L0 384 512 896l71.68-71.68L143.36 384l440.32-440.32z"  horiz-adv-x="1024" />

    
    <glyph glyph-name="unfold" unicode="&#58908;" d="M512 71.68L0 583.68l71.68 76.8 440.32-440.32 440.32 440.32L1024 583.68z"  horiz-adv-x="1024" />

    
    <glyph glyph-name="cart-o" unicode="&#58913;" d="M204.8 742.4V896H0v-102.4h102.4v-716.8h752.64L1024 527.36V742.4H204.8z m716.8-194.56L783.36 179.2H204.8V640h716.8v-92.16zM153.6-76.8m-51.2 0a51.2 51.2 0 1 1 102.4 0 51.2 51.2 0 1 1-102.4 0ZM870.4-76.8m-51.2 0a51.2 51.2 0 1 1 102.4 0 51.2 51.2 0 1 1-102.4 0Z"  horiz-adv-x="1024" />

    
    <glyph glyph-name="addto" unicode="&#58921;" d="M128 768h640v-384h128V896H0v-1024h512v128H128zM1024 128h-128v128h-128v-128h-128v-128h128v-128h128v128h128z"  horiz-adv-x="1024" />

    
    <glyph glyph-name="fullscreen" unicode="&#58920;" d="M102.4 691.2H0V896h204.8v-102.4H102.4zM204.8-128H0v204.8h102.4v-102.4h102.4zM1024-128h-204.8v102.4h102.4v102.4h102.4zM1024 691.2h-102.4V793.6h-102.4V896h204.8zM819.2 76.79999999999995H204.8V691.2h614.4v-614.4zM307.2 179.20000000000005h409.6V588.8H307.2v-409.6z"  horiz-adv-x="1024" />

    
    <glyph glyph-name="view" unicode="&#58928;" d="M512 896C230.4 896 0 665.6 0 384s230.4-512 512-512 512 230.4 512 512S793.6 896 512 896zM450.56 143.36l-71.68 71.68 168.96 168.96-168.96 168.96 71.68 71.68 240.64-240.64-240.64-240.64z"  horiz-adv-x="1024" />

    
    <glyph glyph-name="bag" unicode="&#58929;" d="M916.48 691.2H716.8c0 112.64-92.16 204.8-204.8 204.8S307.2 803.84 307.2 691.2H107.52L46.08-128H972.8L916.48 691.2zM512 793.6c56.32 0 102.4-46.08 102.4-102.4H409.6c0 56.32 46.08 102.4 102.4 102.4zM158.72-25.6l40.96 614.4H307.2v-102.4h102.4V588.8h204.8v-102.4h102.4V588.8h107.52l46.08-614.4H158.72z"  horiz-adv-x="1024" />

    
    <glyph glyph-name="add" unicode="&#58930;" d="M512 896C230.4 896 0 665.6 0 384s230.4-512 512-512 512 230.4 512 512S793.6 896 512 896z m271.36-563.2H563.2v-204.8H460.8v204.8H271.36V435.2H460.8V640h102.4v-204.8h220.16v-102.4z"  horiz-adv-x="1024" />

    
    <glyph glyph-name="icon-test" unicode="&#58899;" d="M904.139 755.139H105.854c-27.586 0-42.015-28.188-42.015-56.02v-644.243c0-27.08 14.922-42.015 42.015-42.015H904.14c27.833 0 56.02 14.442 56.02 42.015V699.12c0 27.224-28.79 56.02-56.02 56.02z m28.01-700.263c0-9.656-16.385-13.992-28.01-13.992H105.854c-11.775 0-14.005 2.23-14.005 13.992V571.932c0.944-0.205 1.82 1.135 2.818 1.135h837.482v-518.19z m0 546.202H94.669c-1 0-1.874-2.072-2.818-2.27V699.118c0 11.619 4.35 28.003 14.005 28.003H904.14c11.776 0 28.01-16.234 28.01-28.003v-98.041zM169.904 240.332c1.901-1.504 4.226-3.391 6.839-3.391h125.184v-70.025h28.01V236.94h39.361c2.654 0 2.052 2.133 3.296 3.583 1.287 1.477-0.642 4.678-0.642 6.784V264.95h-42.015V447.03h-28.94L162.668 264.594l3.556-17.492c0.547-2.229 1.765-5.224 3.68-6.77z m134.265 166.672c-0.67-4.226-1.285-7.05-1.518-11.017-0.178-3.966-0.724-7.68-0.724-11.134V264.95H200.991l103.177 142.054z m106.623-209.711c9.246-11.914 20.133-20.762 32.66-26.617 12.501-5.839 26.041-8.698 40.607-8.698 14.402 0 27.955 2.86 40.592 8.698 12.598 5.855 23.594 14.703 32.852 26.617 9.26 11.898 16.563 26.957 21.897 45.146 5.36 18.218 8.042 39.745 8.042 64.636 0 24.858-2.682 46.44-8.042 64.705-5.335 18.258-12.638 33.357-21.897 45.345-9.258 11.967-20.254 20.898-32.852 26.705-12.638 5.805-26.19 8.746-40.592 8.746-14.565 0-28.106-2.941-40.607-8.746-12.527-5.807-23.414-14.737-32.66-26.705-9.258-11.988-16.534-27.087-21.828-45.345-5.333-18.266-7.932-39.847-7.932-64.705 0-24.89 2.599-46.418 7.932-64.636 5.294-18.19 12.57-33.248 21.828-45.146z m12.227 164.455c3.639 14.751 8.493 26.635 14.593 35.635 6.06 8.972 13.145 15.475 21.241 19.366 8.07 3.858 16.453 5.84 25.206 5.84 8.74 0 17.11-1.983 25.206-5.84 8.082-3.89 15.208-10.394 21.336-19.366 6.142-9 11.024-20.884 14.702-35.635 3.64-14.75 5.444-32.994 5.444-54.673 0-21.719-1.805-39.909-5.444-54.597-3.678-14.689-8.56-26.534-14.702-35.534-6.127-8.999-13.253-15.481-21.336-19.366-8.096-3.899-16.466-5.84-25.206-5.84-8.753 0-17.136 1.941-25.206 5.84-8.096 3.885-15.182 10.367-21.24 19.366-6.1 9-10.955 20.844-14.594 35.534-3.665 14.688-5.47 32.878-5.47 54.597 0 21.679 1.805 39.923 5.47 54.673z m175.666-121.416c1.914-1.504 4.197-3.391 6.837-3.391h130.56v-70.025h28.009V236.94h34.001c2.638 0 4.745 2.133 5.99 3.583 1.246 1.477 2.026 4.678 2.026 6.784V264.95H764.09V447.03H729.79L591.408 264.596l3.57-17.493c0.56-2.23 1.762-5.225 3.706-6.771z m135.603 166.672c-0.656-4.226 0.015-7.05-0.164-11.017-0.22-3.966 1.957-7.68 1.957-11.134V264.95H629.728l104.56 142.054z m-583.19 272.42c-10.394 0-18.804-8.418-18.804-18.833 0-10.393 8.411-18.82 18.805-18.82 10.408 0 18.82 8.426 18.82 18.82-0.002 10.416-8.412 18.833-18.82 18.833z m75.25 0c-10.395 0-18.806-8.418-18.806-18.833 0-10.393 8.412-18.82 18.806-18.82 10.408 0 18.82 8.426 18.82 18.82 0 10.416-8.412 18.833-18.82 18.833z m75.25 0c-10.395 0-18.806-8.418-18.806-18.833 0-10.393 8.412-18.82 18.805-18.82s18.82 8.426 18.82 18.82c0 10.416-8.425 18.833-18.82 18.833z"  horiz-adv-x="1024" />

    
    <glyph glyph-name="Receiveaddress" unicode="&#58901;" d="M490.252 34.555l20.157-20.08 20.207 20.032c8.684 8.608 213.303 211.879 267.368 304.443 29.597 50.669 45.242 108.629 45.242 167.613 0 88.886-34.615 172.451-97.465 235.302-62.85 62.853-146.417 97.467-235.303 97.467s-172.45-34.614-235.301-97.465c-62.852-62.852-97.466-146.417-97.466-235.302 0-60.614 16.464-119.959 47.612-171.614 54.364-90.147 256.374-291.852 264.949-300.396z m20.206 654.776c83.102 0 150.469-67.368 150.469-150.47s-67.367-150.469-150.47-150.469-150.47 67.367-150.47 150.469 67.37 150.47 150.47 150.47zM779.384-6.225h-535.89c-15.787 0-28.63-12.843-28.63-28.629 0-15.786 12.843-28.63 28.63-28.63h535.89c15.786 0 28.629 12.844 28.629 28.63s-12.843 28.63-28.63 28.63z"  horiz-adv-x="1024" />

    
    <glyph glyph-name="newwindow" unicode="&#58902;" d="M896 791.467H128c-34.133 0-61.867-27.734-61.867-61.867V96c0-34.133 27.734-61.867 61.867-61.867h484.267c12.8 0 21.333 8.534 21.333 21.334s-8.533 21.333-21.333 21.333H128a19.12 19.12 0 0 0-19.2 19.2V578.133h808.533v-484.266c0-12.8 8.534-21.334 21.334-21.334S960 81.067 960 93.867v633.6c-2.133 36.266-29.867 64-64 64zM108.8 620.8V727.467a19.12 19.12 0 0 0 19.2 19.2h768a19.12 19.12 0 0 0 19.2-19.2V620.8H108.8zM251.733 706.133h-76.8c-12.8 0-21.333-8.533-21.333-21.333s8.533-21.333 21.333-21.333h78.934c12.8 0 21.333 8.533 21.333 21.333s-10.667 21.333-23.467 21.333z m136.534 0h-78.934c-12.8 0-21.333-8.533-21.333-21.333s8.533-21.333 21.333-21.333h78.934c12.8 0 21.333 8.533 21.333 21.333s-8.533 21.333-21.333 21.333z m136.533 0h-78.933c-12.8 0-21.334-8.533-21.334-21.333s8.534-21.333 21.334-21.333H524.8c12.8 0 21.333 8.533 21.333 21.333s-8.533 21.333-21.333 21.333z m-347.733-230.4H825.6c6.4 0 10.667 4.267 10.667 10.667S832 497.067 825.6 497.067H177.067c-6.4 0-10.667-4.267-10.667-10.667s4.267-10.667 10.667-10.667z m0-106.666H825.6c6.4 0 10.667 4.266 10.667 10.666S832 390.4 825.6 390.4H177.067c-6.4 0-10.667-4.267-10.667-10.667s4.267-10.666 10.667-10.666z m465.066-83.2H177.067c-6.4 0-10.667-4.267-10.667-10.667s4.267-10.667 10.667-10.667h465.066c6.4 0 10.667 4.267 10.667 10.667s-4.267 10.667-10.667 10.667z m0-106.667H177.067c-6.4 0-10.667-4.267-10.667-10.667s4.267-10.666 10.667-10.666h465.066c6.4 0 10.667 4.266 10.667 10.666s-4.267 10.667-10.667 10.667z m108.8 96C736 290.133 710.4 279.467 710.4 258.133v-260.266c0-21.334 25.6-32 40.533-17.067l130.134 130.133c8.533 8.534 8.533 23.467 0 34.134L750.933 275.2z"  horiz-adv-x="1024" />

    
    <glyph glyph-name="more" unicode="&#58903;" d="M208.2 386.9c0 9.3 3.5 18.6 10.7 25.7 14.2 14.2 37.2 14.2 51.4 0l241-241 241 241c14.2 14.2 37.2 14.2 51.4 0 14.2-14.2 14.2-37.2 0-51.4L537 94.4c-14.2-14.2-37.2-14.2-51.4 0L218.8 361.2c-7.1 7.1-10.6 16.4-10.6 25.7z m0 275.3c0 9.3 3.5 18.6 10.7 25.7 14.2 14.2 37.2 14.2 51.4 0l241-241 241 241c14.2 14.2 37.2 14.2 51.4 0 14.2-14.2 14.2-37.2 0-51.4L537 369.7c-14.2-14.2-37.2-14.2-51.4 0L218.8 636.5c-7.1 7.1-10.6 16.4-10.6 25.7z"  horiz-adv-x="1024" />

    


  </font>
</defs>
</svg>
